<svg xmlns="http://www.w3.org/2000/svg" width="16" height="16" version="1.0" viewBox="0 0 1024 1024">
  <path d="M135.7 82.1c-.9 1.3-2.2 6.8-2.8 12.3-2.1 16.5 1.4 39.1 10 65.1 7 21.3 11 31.3 17.1 43.6 2.3 4.4 3.9 8.3 3.7 8.6-.5.4-19.8-30.2-33.2-52.7-16.1-27-35.9-54-39.5-54-1.7 0-2.5 5.4-2.4 16 .2 13.3 3.6 27.8 10.5 45 10.8 26.9 33.2 64.9 47.7 81.2 2.4 2.6 4 4.8 3.5 4.8-.9 0-3.8-3-27.8-29.7-21-23.3-40.7-43.5-45.8-47C72 172 71 173 71 181c0 9.4 4.9 26.9 11.6 41.5 8 17.5 30.9 48.6 51.8 70.2 4.9 5.1 8.6 9.3 8.1 9.3-.4 0-3.5-2.2-6.9-4.8-3.3-2.7-9.5-7.2-13.6-10-4.1-2.9-11.1-7.7-15.5-10.8-10.1-7.2-27.4-16.4-30.8-16.4-3.6 0-4.2 2.8-2.3 12 5.5 26.1 32.3 58.4 73.1 88 5.5 3.9 10.2 7.4 10.5 7.7.3.3-5.8-2.6-13.5-6.5-7.7-3.8-15.8-7.8-18-8.7-32.9-14-41-16.3-43.7-12.3-1.4 2 0 8.7 3.3 15.7 9.8 21.1 29.4 37.3 68.3 56.2 8.8 4.3 15.7 7.9 15.2 7.9s-4.8-1.4-9.7-3c-26.1-9-53.7-14-60.8-11.1-9.8 4.1 1.4 22.8 21.5 35.6 13.7 8.8 34.3 16.9 53.1 21 14.6 3.1 14.3 3.4-3.2 2.9-28.1-.9-46.5 2.6-48.1 9.2-1.9 7.5 5.9 16.7 19.8 23.3 13.3 6.3 24.9 8.6 49.3 9.9l13 .7-11 2.8c-6 1.5-12.4 2.9-14.1 3.2-6.9 1.1-18.7 6.9-22 10.8-3.5 4.2-3.1 7.3 1.5 11.7 4.6 4.4 14.3 8.4 24.5 10.1 6.7 1.1 27.5.8 37.1-.6 3.5-.5 2.9 0-5 4-15.5 8-23.5 15.3-23.5 21.5 0 13.8 33.6 17.2 64.4 6.4 3.8-1.3 7-2.3 7.2-2.1.1.1-2.5 3.1-5.8 6.7-11 11.9-14.8 18-14.8 24 0 7.1 6.4 10.5 19.6 10.4 10.2-.1 17.8-2.7 29.4-10.3 12-7.9 11.4-7.6 10.5-6-.4.8-1.6 2.3-2.6 3.4-2.8 3.2-7.8 13.9-8.5 18.3-.8 5.2 1 10.6 4.3 12.7 3.5 2.3 15 1.6 21.6-1.4 5.8-2.7 13.9-9.2 21.8-17.5l5.9-6.1-3.8 7.5c-3.2 6.4-3.7 8.6-4 15.6-.4 8.8.4 11.4 4.3 14 2.2 1.4 2.9 1.4 7.7 0 6.7-1.9 12.5-6.8 18-15.2l4.3-6.5.5 10.8c.5 8.2 1 11.5 2.5 13.6 3.5 5.3 7.9 5.6 16.5 1.1 2.5-1.3 4.9-2.4 5.5-2.4.5 0 2.3-1 3.8-2.3l2.9-2.2-1.6-8c-.8-4.4-2.9-13.8-4.5-20.8-5.3-22-4.3-21.3 4 2.7 3.3 9.8 9 25 12.6 33.9 3.6 8.9 7.7 19.3 9.3 23.2 8.2 20.7 15.2 38 15.6 38.4.8.9 4.7-3.6 7.5-8.5 3.5-6.2 6.5-7.8 10.4-5.8 3.8 1.9 5 3.8 7.1 10.7.9 3.1 2.2 6.1 2.8 6.6 2.5 2 80.9 3.1 109.1 1.6l13.1-.7 1.1-4.9c.9-4.5.8-5.1-.9-6-1.5-.8-2.5-.6-4.1.6-11 8.1-15.8 9.4-19.8 5.4-1.7-1.7-2-2.9-1.5-5.9 1.1-6.8 3.5-10.7 10-16.4 8.5-7.6 11.6-8.1 17.4-3 2.4 2 4.7 3.3 5.2 2.8.9-1 3.6-7.3 12.4-28.9 3.2-7.7 6.8-16.5 8.1-19.5 1.2-3 2.8-7.3 3.5-9.5.7-2.2 1.6-4.5 2-5 .4-.6 1.7-4.2 3-8 5-15.2 6.4-18.8 6.8-17.6.2.7-.3 4.4-1.3 8.3-.9 3.9-3 13.2-4.5 20.7l-2.9 13.6 2.1 1.5c4.7 3.4 16.5 9 18.9 9 3.7 0 7.4-3.2 8.7-7.8.7-2.2 1.2-8.2 1.2-13.3.1-9.2.1-9.3 1.7-6.4 3.1 5.7 10.5 14.6 14.4 17.2 2.4 1.5 5.9 2.8 8.7 3.1 4 .3 5.3 0 7.6-2 5.2-4.5 4.5-16.2-1.8-28.3-1.7-3.3-3.2-6.3-3.4-6.8-.2-.4 4 3.7 9.5 9.1 12.1 12.1 19.9 16.4 30.3 17 4 .3 7.6-.1 9-.8 2.6-1.4 5-6.7 5-11.2 0-3.9-5.5-15.9-9.5-20.6-3.8-4.5-2.7-4.9 2.6-.9 14.1 10.5 23.2 14.1 35.9 14 11.5 0 17.6-2.8 19.4-9 1.4-4.4-4.8-14.4-16.3-26.7-3.2-3.4-4.7-5.6-3.6-5.2 7 2.7 12.6 4.5 17 5.5 7.4 1.7 27 3.2 32.9 2.6 12.6-1.4 20.6-6.5 20.6-13.2 0-3.2-.8-4.4-5.3-8.8-3.1-2.9-9.6-7.2-15.5-10.3-9.8-5.1-14.3-8.3-8.5-6.1 1.5.6 9.8 1.3 18.3 1.6 13.8.5 16.5.3 24-1.7 4.7-1.2 10.5-3 13-4.1 5.8-2.6 11-7.6 11-10.6 0-8-8.2-12.7-32.8-18.8l-16.7-4.1 14.3-.7c13.4-.6 36.6-4.4 41-6.6.9-.5 5.2-2.5 9.4-4.5 13.1-6.2 19.8-15 17.2-22.5-2.2-6.4-19.8-9.6-47.3-8.5-11.5.5-17.2.3-16.8-.3.4-.6 3-1.3 5.9-1.7 11.9-1.4 30.3-7.1 45.4-14.1 22.5-10.4 39.8-27.1 39.8-38.3 0-4.6-2.4-6.2-9.5-6.2-11.7 0-45.5 7.7-59.2 13.5-2.2.9-4.4 1.4-5 1.2-.6-.2.5-.9 2.4-1.7 7-2.8 27.2-13.1 36.1-18.6 25.4-15.4 41.1-31.6 46.7-48.2 3.2-9.3 2.5-11.9-3-12.4-6.2-.5-30.4 8.9-55.6 21.7-9 4.6-16.3 8.1-16.3 7.9 0-.1 5.4-4.2 12.1-9 20.2-14.5 28.8-22 43.7-38.4 11.1-12.2 18.9-23.8 24.3-35.8 4.4-10 6.7-20.9 4.9-24.1-1.4-2.7-1.7-2.7-9.7 1.1-13.4 6.4-24.9 13.7-46.3 29.7-15.6 11.7-15.7 11.7-5.5 1 10.3-10.7 32.4-38 39.3-48.4 10.8-16.5 18.8-34.4 22.2-50.1 2.9-13.5 2.6-21.4-.7-21.4-1.8 0-23.8 21.3-33.5 32.5-12.8 14.7-40.3 44.3-41.6 44.9-1.3.6-.5-.6 6.9-9.5 18.2-22 43.5-70.6 49.8-95.7 4.1-15.7 4.8-34.5 1.6-38.9-1.2-1.6-1.6-1.5-5.1 2.2-10 10.6-19.2 24.5-52.1 78.5-14.8 24.3-18.4 28.7-11.4 14 2.7-5.8 5.6-12.3 6.4-14.5 13-36.3 14.7-41.8 17.7-57.5 1.6-8.3 2.2-15.3 2.2-25 0-21.9-3.4-28.2-9.8-18.3-4.7 7.2-14.1 26.2-20.1 40.3-.8 1.9-1.8 4.4-2.3 5.5-.5 1.1-5.6 13.7-11.4 28-13.5 33.7-18.9 46.4-19.7 46.5-.4 0-.3-1.7.2-3.8 6.5-27.5 9.8-70.4 6.8-88.1-2.1-12.4-2.2-12.2-14.5 24.9-7.8 23.3-10.8 33-14.8 48.1-6.8 25.4-19.8 64.5-24.7 74.2-4 8-4.1 8.1-3.4 3.7 3.4-23.2 4.2-32.2 2.7-30.4-1 1-9.3 23.5-11.2 29.9-.6 2.2-1.7 5.6-2.5 7.5-.8 1.9-2.8 8-4.5 13.5-5.2 16.9-18.2 52.2-23.9 65.1-5.5 12.3-16.6 31.3-24.5 41.7-16.2 21.4-34.6 41.1-44.4 47.4-13.6 8.6-35.7 16.6-51.3 18.5-10.3 1.2-9.9 1.4-16.7-9.2-2-3-6.8-9.8-10.7-15-14.9-19.8-19.5-28.8-19.5-38.9 0-5.1.3-5.7 4.3-9.6 6.6-6.3 13.6-8 31.2-7.9 21.1.2 38.2 4.5 48.4 12.1l3.3 2.6-.7-3.4c-1.3-6.1-7.3-20-11.2-25.6-4.7-6.8-13.5-15-22.8-21.1-3.8-2.5-10-6.8-13.6-9.5-6.1-4.4-6.9-5.5-9.4-12-4.7-12.1-12-20.6-25.4-29.2-14.4-9.3-32.7-15.5-52.1-17.5-14.8-1.5-24-.3-89.9 11.5-8 1.4-14.6 2.7-14.8 2.9-1.1 1.1 22.3 8.1 30.9 9.2 5.2.7 7.6 2.4 3.3 2.4-6.5 0-30.6 10.2-43.3 18.4-4 2.5-7.2 4.7-7.2 4.9 0 .1 2.8.3 6.3.5 3.4.1 9.8.9 14.2 1.7 4.4.9 9.4 1.8 11 2.1 3.4.5 13.5 3.5 13.5 4 0 .2-2.2 3.1-4.8 6.4-7.7 9.5-17.6 24.7-22.5 34.5-4.1 8.2-8.7 20.1-8.7 22.5 0 .5 3.6-1.3 8.1-4.1 7.8-4.9 12.9-7.4 12.9-6.3 0 .2-1.1 2.6-2.4 5.2-3.7 7.4-7.6 22.5-9.2 35.5-1.5 12.1-1.5 17.9.1 12.2.4-1.7 1.1-3.2 1.4-3.5.3-.3 1.7-2.5 3-5s3.4-6.3 4.6-8.5c1.2-2.2 3.9-7.2 5.9-11 2.1-3.9 5.8-9.8 8.2-13.2 2.4-3.4 4.4-6.4 4.4-6.7 0-.2-3.2.5-7.1 1.6-3.9 1.1-7.4 1.7-7.7 1.3-1.2-1.1 5.6-12.8 12.4-21.3 3.6-4.6 6.3-8.7 5.9-9-.3-.3-4.4.7-9.1 2.2-4.7 1.5-8.7 2.6-8.9 2.4-.6-.5 17-16.7 23.4-21.5 3.1-2.3 9-5.9 13.1-8 4.1-2.1 7.7-3.9 8-4.1.8-.5-5.4-5.1-7-5.2-1.2 0-1.1-.3.3-1.1 3.1-1.8 25.3-1.5 34.2.5 12.2 2.7 15.6 4.5 20.8 11.4 4.8 6.2 8.5 8.3 16.8 9.7 4.6.7 11.4 6.5 12.9 11.1 1.5 4.5.2 6.7-8.5 13.5-7.4 5.8-8.5 7.4-8.5 12.2 0 4.4 4 9 18.3 21 12.8 10.8 17.7 15.8 23.3 24.2 16.1 23.9 23.2 43.7 22.5 63l-.1 4-2.8-5.1c-3.2-6.1-10.9-15.4-12.7-15.4-1 0-1 1.2.1 5.7 2.6 11.2.8 26.8-4.4 37.1l-2.7 5.4-.7-6.4c-.7-6.7-2.8-12.7-5.1-14.6-1.2-1-1.5 0-2 6-1.1 13.4-7 26.1-17.1 37.3l-3.6 4 .6-7.1c.7-7.6-.2-17.2-1.5-15.8-.5.5-1.7 3.1-2.7 5.9-2.2 6.3-8.9 19.3-13.6 26.6-2 3.1-8.3 10.5-14 16.4l-10.3 10.8-.7-13.4c-.3-7.4-1.3-16.4-2.2-20-1.8-7.7-7.8-23.8-13.1-35.4-2.1-4.4-4.1-9-4.6-10.3-.9-2.4-2.9-3-2.9-.8 0 .7-.7 2.7-1.5 4.2-.9 1.8-1.5 5.7-1.5 10.3 0 7.4 0 7.4-2.1 5.6-1.1-1.1-3.8-5.5-6-10-3.1-6.2-4.2-10-5.1-17-.6-5-1.3-9.2-1.5-9.4-.4-.6-4.4 4.6-7.1 9.3-2.9 5-4.9 10.6-5.8 16.6l-.7 4.5-1.3-3c-3.7-9.1-5.7-32.3-3.9-45 .8-5.6 3.8-17.6 5.4-21.8.6-1.5.7-2.7.3-2.7-3.4 0-19.7 19.2-24.6 28.8-1.5 3-3 5.2-3.2 4.9-1.5-1.5 4.6-32.3 10.2-51.6.7-2.3.6-2.3-1.7-.7-1.3.9-7.7 7-14.2 13.5-15.6 15.7-16.7 15.8-42.2 7.1-23.5-8.2-34.9-17-59.1-46-16-19.1-27.7-37.6-36.2-57-5.3-12.2-19.3-50.8-26.1-72-8.7-26.9-15.5-45-15.9-41.7-.3 2.8 3.4 30.5 4.5 33.3.3.8.2 1.4-.2 1.4-3 0-19.9-48.1-29.6-84.5-5.9-22.3-23.8-76.8-25.9-78.9-1.6-1.6-2-.4-3.1 9-1.3 9.9-.6 43.4 1 52.4.6 3 1.8 10.2 2.7 16 .9 5.8 2.3 13.1 3.1 16.3.8 3.2 1.3 6.1 1 6.3-.4.4-10.4-22.6-15.7-36.1-1.7-4.4-3.5-8.9-4-10-1.5-3.3-6.4-15.2-12.5-30-7.8-18.9-19.6-42.1-23.8-47l-3.4-3.9-1.6 2.5zm408.5 208c16.7 3.6 36.8 21.4 36.8 32.7 0 3.5-.4 4.3-3.4 6.1-7.3 4.5-14.9 1.9-24.1-8.3-3.6-4-7.5-7.2-10-8.2-2.2-.9-10.2-2.2-17.8-2.9-7.5-.8-16.1-2.1-19-2.9-5.8-1.7-16.1-7.6-15.9-9 .1-.6 3.2-1.8 6.9-2.7 3.7-1 9.7-2.7 13.3-3.8 7.5-2.3 24.6-2.8 33.2-1zm1.3 28.9c4 1.9 6.2 4.7 6.6 8 .5 5.1-4.7 10-10.8 10-5.1 0-11.3-5.5-11.3-10 0-4.7 4.2-8.5 10.9-9.9.3-.1 2.3.8 4.6 1.9z"/>
  <path d="M507.5 120.9c-10.7 6.5-12.6 18.7-4.3 27.7 2.2 2.4 4.7 4.4 5.4 4.4 2.1 0 1.7 3-1.8 15.3-6.1 21.2-12.4 29.2-23.1 29.1-2.9-.1-6.6-.8-8.4-1.7-3.7-2-8.1-7-10-11.5-1.2-2.9-1.1-3.6.8-7.3 2.6-5.2 2-9.6-2.1-14.2-6.7-7.7-17.8-6.2-21.6 3-3 7-.5 13.7 6.4 17.2 4.3 2.2 5.2 4.1 5.2 11.4 0 5.3-1.8 10.5-4.5 12.7-2.4 2-10.6 1.5-15-.9-4.6-2.5-7.2-5.8-8.1-10.7-1.8-10.3-8.7-16.5-23.4-21-2.5-.8-5.7-1.4-7.2-1.4-2.5 0-2.3.4 3.4 5.7 15.4 14.8 29.3 43.2 40.3 82.5.9 3.6 2.1 5.8 3 5.8.8 0 5.6-1.4 10.7-3 18.1-5.9 35.7-8.2 60.8-8.1 27.7.1 49.3 3.2 67.3 9.7 3.8 1.3 7.4 2.4 8 2.4.7 0 1.9-2.8 2.8-6.3 10.1-39 23.6-66.4 40.8-83.2 2.8-2.7 5.1-5.2 5.1-5.6 0-.4-2.8-.1-6.2.7-13.5 3.1-25.8 11.9-25.8 18.3 0 8.3-7.1 15.6-16.3 16.7-5 .6-5.8.4-8-1.8-3-3-5.2-12.2-4.2-17.9.6-3.3 1.3-4.3 4.3-5.8 5.7-2.9 7.5-5.5 7.9-11.4.4-4.7.1-5.6-2.7-8.9-5.4-6.5-13.8-6.8-19.2-.5-4.3 4.8-4.8 9.4-1.8 15l2 3.7-2.1 4.5c-6 12.7-21.8 16-30.6 6.3-3.5-3.8-7.8-13.4-10.7-24-3.5-12.7-3.4-13.7 1.4-17 5.1-3.5 7.4-8 7.4-14.5.1-9.7-7.8-17.3-17.9-17.3-3.1 0-6.2.7-8 1.9zm340.8 503.6c-9.4 4.3-17.1 10.2-20.7 15.9-4.2 6.6-16.4 16.9-31.6 26.9-11.6 7.5-15.6 11.2-20 17.8-1.5 2.3-5.4 5.4-10.4 8.4-4.5 2.7-12.2 7.5-17.3 10.7-12.1 7.9-19.3 10.7-32.2 12.5-5.8.8-11.5 1.6-12.6 1.8-1.1.2-3.3.6-5 .9-1.6.3-5.5.9-8.5 1.5s-8.4 1.5-12 2.2c-3.6.7-10.9 1.5-16.4 1.8l-9.8.6-.3 7c-.1 4.3-1.1 9-2.4 12.3-1.1 2.9-2.1 5.6-2.1 6.1 0 .4 3.3 1.1 7.3 1.4 9.1.7 26.5 4.6 42.7 9.7 9.6 3 14.1 5.1 19.5 8.8 6.9 4.7 12.9 7.2 17.6 7.2 1.3 0 4.7.9 7.4 1.9 5.6 2.1 16.4 4.5 17.1 3.8.9-.9-4.2-9.3-8.1-13.2-3.7-3.8-14.4-8.8-25.5-12.1-6.5-1.9-11.7-7.6-10.8-12 .4-2.4 1.9-3 14.6-5.4 15-2.8 30.8-4.1 53.2-4.3 14.9-.2 19.5.1 23.5 1.5 2.8.9 6.2 1.9 7.6 2.2 1.4.3 8.1 4.2 14.9 8.6 6.7 4.4 12.7 8 13.1 8 1.5 0 1-3.2-1.2-7.7-1.2-2.4-2-4.6-1.7-4.8.2-.2 1.7.2 3.3 1 22.4 10.1 27.9 12 32.6 11.3 2.3-.3 2.3-.4-1.5-4.5-7.7-8.6-18.9-13.4-47.1-20.4-7.4-1.8-15.1-3.1-17.9-3-6.8.3-40.7-2.9-42.8-4-2.6-1.4-2.2-2.7 1.7-6.2 4.6-4 13.2-8.7 21.5-11.6 8.3-2.9 16.6-6 20.7-7.7 1.7-.8 3.4-1.4 3.8-1.4.4 0 2.1-.6 3.8-1.4 1.8-.8 5.5-2.1 8.2-2.9 4.8-1.4 9.1-2.3 42.9-8.7 8.8-1.7 17.1-3.8 18.5-4.7l2.6-1.7-3-.7c-1.6-.4-4.7-.7-6.7-.8-6.1-.2-4.4-1.6 3.4-2.9 9.1-1.6 18.7-6.3 25.2-12.4 4.2-3.9 4.7-4.8 3.1-4.9-3.7-.3-7.9.2-19.9 2.7-12.6 2.5-22.2 5.9-37 12.8-14.7 7-35.8 13.2-48.1 14.2-2.2.2-5 .6-6.3.9-2.1.5-2.3.3-1.6-1.7 1.7-5.5 2.6-6.9 8.5-13.3 8.2-8.7 15.6-14.3 24.9-18.7 10.3-5 17-11.8 11.4-11.8-.9 0-.3-1.2 1.8-3.3 3.8-3.9 10.2-14.2 9.6-15.6-.2-.6-2.5-.1-5.5 1.4zm-710.6 20.2c-1.4 1.3-.4 15.6 1.6 24 .5 1.8.1 2.3-1.3 2.3-1 0-2.2-.5-2.5-1-1.1-1.8-2.2-1.1-3.8 2.7-1.9 4.5-3.7 14-3.7 19.9v4.3l9.9 3.1c5.5 1.7 11.2 3.7 12.8 4.5 1.5.8 3.2 1.5 3.6 1.5.5 0 2.3.7 4 1.5 1.8.8 9.1 3.7 16.3 6.4 7.2 2.7 16.4 6.5 20.5 8.4 4.1 2 11.7 5.4 16.9 7.7 5.2 2.3 14.9 7.6 21.5 12 13.9 9.1 44 24.4 52.3 26.5 6.1 1.6 17.2 2 17.2.6 0-1.1-4.6-6.8-9.8-12.1-4.2-4.3-4.3-4.4-2-5.3 3.3-1.2 54.9-1 63.8.3 10.5 1.5 28 5.8 35.3 8.6 6.2 2.5 17.7 4.4 17.7 2.9 0-.4-.7-2.2-1.6-4.1-.9-1.9-1.4-3.7-1.1-4 2.3-2.4 26.7-4.7 26.7-2.6 0 1.2 4.6 3.2 7.3 3.2 4.7 0 5-1 2.8-11.7-2.5-11.9-2.6-17.2-.7-19.9 1.7-2.2 2.1-1.5 3 5.6 1.1 8.2 4.9 24 5.8 24 1.5 0 5.8-10.5 6.7-16.1.9-5.4.6-10-1-15.9-2.5-9.6.7-11 3.9-1.6 1.2 3.5 2.2 8.6 2.2 11.4 0 5.1-4.1 19.8-6.5 23.6-1.8 2.8-2.3 6.8-.8 7.3.6.2 3.4-1.9 6.1-4.8 5.7-5.9 6.3-5.8 10.8 1.3 1.4 2.1 2.8 3.8 3.3 3.8s1.4-2.3 2.1-5c.7-2.8 1.9-5.4 2.9-5.9 1.8-.9 29.9-1.8 87.1-2.7l38.5-.7 1.8 5.1c2.1 6.1 5.9 8.4 12.6 7.5 5.7-.8 12.1-6.8 12.1-11.3 0-1.7-.2-3-.5-3s-2.4 1.3-4.7 3c-2.2 1.6-4.8 3-5.8 3-.9 0-2.1.5-2.7 1.1-2.5 2.5-3.3-.3-3.1-10.4.2-7.7-.2-11.5-1.5-15.4l-1.8-5.2-8.2-.3c-4.5-.2-15.8 0-25.2.4-9.3.4-24.2.7-33 .8-16.7.2-77.4-1.7-81.1-2.5-1.6-.4-2.9-2.5-5.3-8.9-1.8-4.6-3.7-8.6-4.4-8.9-1.8-.7-4.1 1.3-5.6 4.9-1.6 4-5.7 7.8-9.8 9.2-3.4 1.1-3.7 1-8.9-5.6-1.4-1.7-3.1-3.2-3.8-3.2-1.8 0-4.7 3.4-7.2 8.3-1.5 2.9-2.7 4.1-4 4-1-.1-9.1-.5-17.9-.9-9.9-.4-22.5-1.7-33-3.4-9.3-1.6-19.2-3.1-22-3.5-2.7-.3-6.1-.8-7.5-1-1.4-.2-11.3-1.3-22-2.4-27.7-3.1-30.6-3.9-52.4-14.2-34.8-16.5-37.6-18-42.6-22.4-2.7-2.4-6.9-5.5-9.4-7-3.9-2.3-4.7-2.4-6.5-1.3-1.2.7-2.1 1.7-2.1 2.2 0 1.4-5.5-.1-12.6-3.4-3.6-1.6-6.7-3-7-3-.6 0-17.1-7.4-28.1-12.6-8.8-4.2-13.1-5.3-14.6-3.7zm289.2 79c1 2.1 2.9 7.6 4.1 12.3 1.3 4.7 2.7 9.3 3.2 10.4 1.5 2.8-.5 4-2.6 1.7-1.3-1.4-10.2-25-10.6-27.9 0-.1.9-.2 2-.2 1.3 0 2.6 1.3 3.9 3.7z"/>
  <path d="M580.4 690c-5.3 3.3-11.5 10.6-12.4 14.6-.5 2.1-.7 4.2-.4 4.6 1.2 1.9 5.3.5 9.9-3.3 7.1-5.8 7.9-6.2 11.8-4.5 3.3 1.3 9.3 8.4 11.8 14 1.3 2.7 1.6 2.8 6.2 2.3 4.2-.5 5.2-.3 7.2 1.7 3.8 3.9 5.8 12.6 5.2 22.9l-.5 8.8 3-2.8c3.5-3.3 6.9-9.3 8.6-15.1 1.3-4.3 3.2-5.7 3.2-2.3 0 1 .7 3.5 1.5 5.4.9 2.2 1.5 6.7 1.5 11.2 0 4.1.4 7.5.8 7.5 1.3 0 5.1-7.3 7.2-14 3.5-11 2.4-18.7-3.8-25.3-2.2-2.3-3.4-2.7-7.8-2.7-2.9 0-5.6.5-6 1.1-1 1.6-8.5.4-13.6-2.2-2.4-1.2-8.1-5.9-12.8-10.5-4.6-4.6-8.6-8.4-8.8-8.4-.2 0-1.6-.8-3-1.8-4.3-3-5.7-3.2-8.8-1.2zm-43.5 64.4c-.6.5-28.1 1.6-41.9 1.6h-11.6l-1.2 3.4c-1.8 4.8-5 8.6-7.3 8.6-2.1 0-7.2-4.4-8.1-7-.3-1.1-1.7-.4-5.3 2.8-6.7 5.9-10.1 5.4-13.2-1.9-1.1-2.5-1.4-2.6-5.4-1.9-4 .8-9-.2-11.5-2.2-.9-.6-7.5 11.8-22.6 41.9-22.9 45.6-28.3 57.8-29.3 65.9-1 7.1 1.4 15 5.7 19 5.9 5.5 8.6 6.6 15.4 6.6 11.3-.1 17.5-5 24.4-19.7 2.2-4.6 4-8.7 4-8.9 0-.8 12.3-25.9 14.7-30.1 2.2-3.7 2.3-3.8 1.7-1-.4 1.6-1.2 4.3-2 6-2 4.6-11 32.2-12.8 39.2-3.4 13.1-1.9 21.5 5.2 29.4 4.7 5.3 8.8 7.9 12.2 7.9 1.1 0 2-.7 2-1.5 0-2.1 1.7-1.9 2.4.3 1 2.9 4.9 6.1 8.3 6.8 2.4.5 3.7 0 6.5-2.5 4.6-4 7.3-10.5 8.7-21.1.7-4.7 1.6-10.3 2.1-12.5.5-2.2 1.4-7.3 2.1-11.3.7-3.9 1.7-7.2 2.2-7.2.5 0 .7 1.6.4 3.7-.3 2.1-1.1 10.6-1.8 19-1.4 17.7-.3 29.7 3.3 37.1 2.5 5.2 16.9 20.3 23.6 24.7l4.2 2.8 5.6-4.3c9.4-7.1 19.5-17.2 21.9-22 4.4-8.7 5.6-24.8 3.4-44.8-.6-5.4-.9-11.6-.7-13.8.2-3.1.8-1.5 2.5 7.6 1.2 6.3 2.9 16.2 3.8 22 2.7 17 7.4 23.7 15.3 21.9 2.4-.5 4.8-2.1 6.9-4.6 2.3-2.7 3.3-3.3 3.3-2.1 0 4.4 8.3.6 14.8-6.7 9.3-10.5 8.5-19.5-4.8-58-2.9-8.3-5.4-16.1-5.6-17.5-.5-2.7 10.3 18.2 15 29 8.4 19.4 13.6 27.4 19.9 30.7 1.8.9 5.7 1.6 9.2 1.6 12.8.2 22.5-9.6 22.5-22.4 0-9.5-10.5-32.6-45.4-99.9l-7.5-14.5-27.4-.3c-15-.1-27.5-.1-27.8.2z"/>
</svg>