<?xml version="1.0" standalone="no"?>
<!DOCTYPE svg PUBLIC "-//W3C//DTD SVG 20010904//EN"
 "http://www.w3.org/TR/2001/REC-SVG-20010904/DTD/svg10.dtd">
<svg version="1.0" xmlns="http://www.w3.org/2000/svg"
 width="1024.000000pt" height="1024.000000pt" viewBox="0 0 1024.000000 1024.000000"
 preserveAspectRatio="xMidYMid meet">

<g transform="translate(0.000000,1024.000000) scale(0.100000,-0.100000)"
fill="#000000" stroke="none">
<path d="M1482 9298 c-27 -53 -33 -87 -33 -197 -1 -123 19 -262 52 -376 30
-101 106 -307 142 -384 17 -36 33 -70 36 -76 14 -30 -35 36 -110 150 -172 259
-244 370 -248 380 -9 21 -166 213 -216 263 -57 57 -73 62 -99 33 -14 -15 -18
-38 -18 -103 1 -80 22 -240 41 -303 61 -200 252 -560 411 -775 27 -37 50 -71
50 -75 0 -3 -30 21 -67 55 -68 62 -379 334 -398 348 -5 4 -26 20 -46 35 -50
38 -84 36 -98 -4 -14 -42 -13 -101 3 -169 63 -257 172 -419 509 -752 93 -93
166 -168 162 -168 -3 0 -34 16 -68 36 -34 20 -78 46 -97 56 -19 11 -64 37
-100 58 -74 42 -212 107 -263 124 -27 9 -86 -22 -92 -48 -8 -32 6 -97 36 -163
10 -24 19 -45 19 -48 0 -14 77 -124 122 -176 27 -31 83 -85 124 -120 42 -35
88 -74 102 -87 15 -13 71 -53 125 -89 54 -36 96 -67 94 -70 -2 -2 -51 15 -108
37 -87 34 -230 71 -374 96 -46 9 -80 -23 -78 -73 5 -129 111 -286 268 -398 65
-46 301 -171 378 -200 26 -10 50 -21 52 -26 6 -9 -18 -6 -110 15 -129 29 -298
19 -340 -20 -32 -30 -32 -56 2 -122 67 -133 271 -246 576 -317 42 -10 75 -20
73 -22 -3 -3 -42 -5 -88 -4 -104 1 -271 -24 -316 -47 -18 -9 -41 -29 -49 -44
-23 -37 -4 -95 47 -147 45 -45 202 -126 272 -140 23 -5 79 -16 123 -25 44 -9
121 -16 170 -16 l90 -1 -75 -28 c-105 -39 -190 -84 -229 -120 -29 -28 -33 -36
-28 -67 4 -20 14 -45 24 -56 26 -28 149 -84 217 -98 70 -14 216 -18 270 -7
l39 8 -72 -69 c-67 -66 -72 -73 -69 -108 10 -115 214 -123 503 -19 23 8 8 -7
-84 -85 -173 -146 -142 -247 81 -268 135 -12 279 19 409 88 31 17 60 30 64 30
3 0 -9 -19 -29 -43 -41 -50 -86 -142 -86 -175 0 -97 106 -127 254 -72 42 16
75 40 127 91 38 38 72 69 74 69 2 0 -7 -24 -21 -53 -48 -106 -48 -206 0 -252
44 -42 147 -11 213 65 l22 25 1 -33 c0 -56 25 -101 66 -118 34 -14 41 -14 121
12 46 15 94 35 106 44 l21 17 -23 104 c-43 198 -71 334 -70 344 0 6 4 2 10 -8
10 -17 23 -51 113 -302 20 -55 41 -109 46 -120 5 -11 25 -63 44 -115 19 -52
48 -126 66 -165 34 -76 105 -263 115 -307 10 -40 21 -35 40 20 20 59 32 75 71
90 60 25 111 -19 140 -120 9 -29 20 -57 25 -63 5 -5 9 -15 9 -23 0 -8 9 -26
20 -41 19 -27 23 -28 142 -35 149 -8 254 -16 288 -22 14 -2 179 -7 368 -11
l342 -6 -15 43 c-8 23 -15 60 -15 80 0 27 -8 48 -25 69 -36 41 -59 47 -95 21
-46 -33 -90 -36 -123 -10 -24 19 -27 27 -21 54 7 33 56 106 96 143 13 13 38
25 55 29 25 5 37 0 67 -26 20 -18 36 -39 36 -48 0 -12 -5 -11 -23 6 -15 14
-36 22 -59 22 -30 0 -41 -7 -66 -37 -27 -36 -62 -95 -62 -108 0 -17 58 0 92
27 l40 31 35 -18 c42 -23 207 -202 230 -251 15 -31 20 -34 49 -28 27 5 34 1
51 -23 51 -71 63 -110 63 -198 0 -47 3 -85 7 -85 12 0 73 51 73 61 0 6 6 25
14 42 8 18 18 46 23 62 14 42 26 37 35 -14 4 -25 12 -47 18 -51 7 -4 8 -26 4
-59 -6 -47 -4 -53 12 -49 29 5 95 150 97 214 1 40 -2 58 -13 64 -8 4 -34 27
-57 49 -33 33 -49 41 -77 41 -20 0 -45 -5 -55 -12 -44 -27 -161 35 -269 145
l-63 64 31 64 c17 35 47 104 66 152 18 49 40 103 48 120 8 18 29 68 46 112 17
44 35 89 39 100 9 21 53 140 78 210 7 22 17 49 22 60 5 11 16 40 26 65 9 25
21 56 26 69 6 13 12 21 14 19 5 -4 -15 -102 -66 -337 l-23 -104 29 -23 c16
-13 46 -26 67 -29 21 -4 40 -10 43 -15 3 -5 23 -11 44 -15 71 -12 131 41 131
115 0 16 2 30 5 30 4 0 22 -15 41 -34 49 -48 96 -68 138 -61 97 19 117 140 47
278 l-30 58 81 -75 c113 -106 219 -145 316 -117 44 13 63 35 69 81 6 45 -16
95 -79 178 -23 29 -39 54 -37 57 3 2 25 -9 50 -25 25 -16 85 -44 134 -62 85
-30 98 -32 230 -32 125 -1 145 2 187 22 71 34 86 77 48 140 -23 38 -93 108
-163 164 -55 43 -54 47 5 18 199 -96 488 -85 488 19 0 38 -20 65 -108 144 -23
20 -39 37 -35 37 5 0 39 -5 77 -10 120 -18 287 12 386 68 95 54 115 111 57
164 -34 33 -179 108 -207 108 -9 0 -20 3 -24 8 -4 4 -22 12 -39 19 -29 10 -24
12 53 13 47 1 96 3 110 6 14 2 54 9 90 14 216 36 408 150 425 252 13 73 -35
111 -157 128 -121 16 -150 19 -233 20 -84 1 -86 12 -6 25 165 27 379 117 486
203 100 80 148 182 108 230 -36 44 -206 55 -363 22 -52 -10 -96 -18 -98 -16
-2 3 20 15 50 28 120 52 347 173 398 213 144 111 238 252 248 372 5 61 4 61
-28 78 -26 14 -40 15 -78 6 -26 -6 -94 -20 -152 -32 -58 -12 -109 -25 -115
-29 -5 -4 -19 -10 -30 -12 -11 -3 -50 -18 -87 -32 -38 -14 -68 -24 -68 -22 0
2 44 34 99 70 54 36 138 101 187 144 49 43 99 87 112 98 34 28 124 142 154
194 30 53 78 187 78 219 0 33 -18 61 -47 72 -41 15 -155 -31 -338 -136 -49
-28 -110 -63 -135 -77 -25 -14 -63 -36 -85 -48 -26 -16 16 31 125 137 315 305
467 525 519 746 46 194 15 268 -85 201 -75 -51 -249 -200 -399 -343 -44 -42
-89 -83 -99 -91 -18 -14 -19 -14 -7 7 6 13 34 52 60 87 27 36 65 91 84 123 19
32 59 99 89 148 30 50 64 113 77 140 13 28 36 77 51 110 78 168 109 271 126
420 16 148 0 235 -43 235 -39 0 -212 -206 -349 -417 -169 -260 -279 -422 -282
-418 -2 2 10 34 28 72 46 99 45 98 89 223 82 232 109 374 107 560 -1 91 -25
174 -54 185 -8 3 -23 -2 -34 -12 -15 -13 -157 -291 -188 -368 -14 -34 -72
-169 -125 -290 -12 -27 -30 -69 -40 -93 -10 -23 -19 -41 -21 -40 -1 2 4 35 12
73 18 97 18 275 0 301 -15 19 -15 19 -35 -1 -17 -18 -138 -252 -201 -390 -44
-96 -161 -341 -209 -435 -103 -203 -264 -500 -271 -500 -3 0 -4 43 -2 95 2 52
0 95 -5 95 -5 0 -22 -39 -38 -87 -16 -49 -46 -133 -67 -188 -22 -55 -66 -172
-99 -260 -33 -88 -64 -164 -69 -170 -4 -5 -20 -43 -34 -84 -42 -117 -128 -288
-196 -390 -153 -230 -434 -508 -603 -597 -85 -45 -270 -111 -334 -120 -41 -5
-52 -3 -73 16 l-25 21 32 -5 32 -5 -14 38 c-29 83 -98 186 -237 354 -26 32
-55 72 -64 89 -15 29 -15 32 3 55 10 14 38 36 63 49 52 28 41 30 -41 9 -51
-13 -108 -38 -157 -69 -10 -6 0 -22 36 -59 43 -47 152 -199 152 -214 0 -4 6
-14 13 -22 7 -9 26 -45 41 -81 15 -36 31 -73 36 -82 16 -29 52 -180 64 -268
12 -91 4 -276 -13 -293 -6 -6 -14 6 -21 34 -14 52 -57 139 -68 139 -5 0 -9
-46 -10 -102 -1 -57 -5 -116 -10 -133 l-9 -30 -17 40 c-22 51 -64 112 -82 119
-12 5 -15 -8 -14 -77 2 -154 -31 -250 -119 -347 l-50 -55 -1 79 c0 79 -16 156
-32 156 -4 0 -8 -12 -8 -26 0 -43 -61 -205 -103 -274 -41 -67 -98 -143 -164
-218 l-38 -43 -1 138 c-1 131 -2 142 -33 219 -17 45 -56 119 -85 166 -29 47
-58 98 -63 113 -14 44 -31 41 -53 -10 -14 -32 -20 -69 -20 -116 0 -38 -4 -69
-9 -69 -4 0 -30 22 -57 48 -87 86 -126 191 -119 324 5 76 4 78 -15 68 -24 -13
-114 -124 -132 -162 -7 -16 -16 -28 -20 -28 -11 0 -21 148 -14 223 9 97 33
222 53 273 10 27 -23 14 -72 -28 -114 -96 -218 -218 -250 -293 -8 -18 -9 -17
-13 10 -7 52 17 146 65 253 12 29 23 56 23 60 0 4 -50 -5 -112 -20 -62 -15
-114 -25 -117 -22 -3 3 5 7 17 11 12 3 22 9 22 14 0 5 5 9 12 9 6 0 36 12 66
27 65 32 156 113 220 197 25 34 82 98 126 144 44 45 73 82 65 82 -8 0 -48 -9
-89 -20 -98 -26 -136 -19 -149 24 -22 80 33 233 131 368 27 37 47 72 44 77 -3
5 -30 15 -58 21 -63 15 -111 38 -104 49 3 5 19 11 36 14 16 4 30 11 30 16 0 5
-25 30 -56 56 l-55 48 -30 -29 c-66 -62 -199 -260 -199 -294 0 -6 21 0 48 13
53 27 151 61 157 55 3 -2 -12 -25 -33 -50 -20 -26 -47 -59 -59 -75 -27 -33
-108 -191 -102 -197 2 -2 51 34 109 80 57 46 106 82 108 80 3 -4 -56 -213 -85
-301 -49 -150 -196 -288 -353 -332 -60 -16 -63 -16 -133 6 -256 81 -410 202
-720 562 -83 96 -190 278 -252 429 -24 61 -44 106 -65 155 -42 97 -50 115 -50
123 0 5 -16 49 -36 98 -46 115 -96 252 -141 387 -20 59 -40 107 -46 107 -6 0
-8 -33 -4 -95 3 -52 4 -95 1 -95 -8 0 -55 81 -126 217 -39 76 -82 154 -94 175
-24 38 -116 226 -239 489 -130 276 -226 459 -240 459 -25 0 -35 -36 -35 -127
0 -78 7 -143 26 -238 l5 -30 -15 30 c-8 17 -43 93 -76 170 -34 77 -67 154 -75
170 -7 17 -23 53 -35 80 -40 92 -162 330 -178 348 -21 23 -36 22 -50 -5z"/>
<path d="M4801 7608 c7 -13 15 -25 18 -28 3 -3 24 -27 46 -54 27 -35 33 -47
20 -41 -32 13 -239 85 -248 85 -16 0 13 -37 87 -113 42 -43 76 -80 76 -82 0
-6 -91 6 -155 21 -161 37 -306 67 -362 73 -56 6 -63 5 -63 -10 0 -10 6 -20 13
-22 7 -3 6 -6 -5 -6 -9 -1 -19 3 -22 8 -8 13 -205 25 -262 16 -53 -8 -49 -15
20 -41 27 -10 73 -30 103 -46 61 -32 138 -84 108 -73 -11 3 -44 9 -74 12 -74
8 -66 -9 34 -70 89 -53 122 -64 237 -77 73 -9 124 -20 168 -37 8 -4 -32 -11
-90 -17 -82 -9 -105 -14 -108 -27 -3 -17 60 -58 188 -124 41 -21 89 -48 107
-61 41 -31 72 -34 87 -9 6 11 12 22 13 24 2 2 21 -9 45 -24 30 -20 58 -29 104
-33 79 -6 107 1 139 36 24 25 31 27 105 27 62 -1 83 -5 99 -19 20 -18 20 -18
0 -69 -17 -42 -18 -55 -8 -79 6 -16 19 -33 28 -38 10 -5 66 -10 127 -11 60 -1
123 -6 139 -10 17 -4 68 -15 115 -25 96 -19 330 -82 345 -93 6 -4 33 -16 60
-26 81 -29 197 -85 232 -111 45 -34 56 -30 36 14 -59 127 -176 247 -376 382
-52 35 -55 50 -7 39 20 -5 50 -13 65 -19 15 -6 30 -9 32 -7 2 3 -19 32 -48 66
-56 67 -141 123 -265 173 -49 20 -98 52 -153 98 -209 177 -474 339 -695 427
-73 28 -69 28 -55 1z m682 -552 c35 -15 74 -52 78 -76 10 -51 -37 -85 -116
-85 -67 0 -95 22 -95 75 0 41 23 74 61 89 32 13 35 13 72 -3z"/>
<path d="M1467 4073 c-11 -11 -8 -157 4 -192 14 -39 5 -50 -23 -32 -19 12 -24
11 -39 -8 -23 -28 -52 -165 -45 -206 6 -30 13 -36 62 -54 30 -12 57 -21 59
-21 3 0 37 -15 77 -33 40 -19 141 -62 223 -97 83 -35 173 -78 200 -95 28 -17
75 -41 105 -54 135 -57 197 -95 297 -181 7 -5 14 -10 17 -10 3 0 25 -13 49
-30 24 -16 55 -34 68 -40 13 -6 49 -24 79 -41 167 -94 255 -129 344 -136 l69
-6 -19 32 c-10 18 -43 53 -71 78 -29 24 -53 49 -53 54 0 12 159 11 280 -1 52
-6 149 -15 215 -20 167 -15 347 -58 465 -112 73 -34 175 -62 190 -53 5 3 1 20
-10 41 l-20 35 28 10 c57 22 186 38 269 34 47 -3 88 -3 93 0 4 2 2 26 -5 52
-29 112 -26 261 4 214 5 -8 12 -43 16 -78 6 -57 35 -150 63 -199 10 -18 11
-18 18 1 4 11 21 37 37 57 26 33 30 45 28 96 -1 33 -6 74 -11 93 -14 49 -13
99 3 99 17 0 34 -53 49 -158 l12 -82 -42 -81 c-23 -44 -40 -85 -36 -90 10 -17
30 -9 64 26 19 19 42 35 52 35 10 0 38 -26 64 -59 56 -72 92 -91 129 -67 30
20 65 73 65 99 0 35 44 39 315 33 289 -6 557 -16 595 -21 14 -2 66 -4 117 -4
l91 -1 7 -31 c11 -48 58 -89 103 -89 62 0 120 49 129 107 l6 38 -24 -20 c-32
-27 -94 -55 -123 -55 -30 0 -36 21 -36 122 0 101 -27 164 -74 171 -17 3 -159
5 -316 6 -328 2 -485 10 -758 37 -29 3 -100 5 -158 5 -124 0 -128 3 -164 106
-12 38 -28 77 -34 88 -11 20 -13 27 -15 56 0 9 -13 21 -28 28 -34 15 -44 6
-75 -74 -23 -56 -26 -60 -82 -82 l-58 -24 -33 26 c-56 42 -85 29 -129 -57 -18
-36 -22 -38 -67 -38 -109 0 -311 22 -409 45 -58 13 -154 33 -215 45 -60 11
-126 25 -145 30 -33 9 -278 52 -405 71 -53 8 -144 40 -199 70 -10 6 -35 20
-55 31 -20 11 -119 63 -220 115 -130 67 -197 107 -233 141 -73 70 -136 100
-153 72 -12 -19 -46 -10 -153 41 -59 27 -115 54 -124 59 -9 5 -50 25 -90 45
-40 20 -82 41 -93 47 -64 36 -108 52 -118 41z m2764 -881 c19 -23 69 -180 63
-197 -6 -15 -8 -14 -23 2 -9 10 -25 41 -36 68 -34 91 -66 155 -78 155 -6 0 -2
7 9 15 17 13 21 12 36 -8 10 -12 23 -28 29 -35z"/>
<path d="M8244 4025 c-70 -29 -173 -106 -198 -148 -40 -67 -133 -144 -296
-246 -115 -72 -141 -95 -185 -163 -23 -34 -95 -82 -265 -176 -30 -17 -80 -44
-111 -61 -44 -24 -83 -35 -185 -51 -71 -11 -183 -29 -249 -40 -66 -11 -161
-23 -212 -26 l-91 -7 -6 -30 c-3 -16 -6 -38 -6 -49 0 -23 -25 -81 -52 -120
-24 -35 -23 -38 15 -38 48 -1 195 -37 402 -99 84 -25 98 -32 195 -92 76 -48
92 -54 169 -63 24 -3 49 -10 55 -16 15 -12 122 -40 154 -40 l23 0 -23 42 c-39
71 -88 110 -184 147 -156 59 -183 73 -199 97 -16 25 -20 70 -7 78 5 3 53 14
108 26 123 25 405 44 584 37 164 -5 246 -30 348 -105 85 -62 130 -88 138 -79
8 8 -14 66 -34 90 -22 25 1 22 66 -8 30 -14 60 -25 68 -25 8 0 14 -4 14 -8 0
-10 86 -38 153 -51 26 -4 47 -5 47 0 0 14 -63 75 -110 106 -79 53 -469 162
-533 149 -33 -7 -294 19 -359 35 -21 6 -38 16 -38 24 0 16 46 56 103 89 42 25
220 96 239 96 5 0 24 7 41 14 88 41 206 85 242 91 22 4 108 20 190 35 83 16
191 36 240 46 87 16 115 27 115 45 0 5 -15 9 -32 10 -18 1 -44 4 -58 8 -21 6
-13 10 45 25 98 24 166 57 219 106 25 24 46 46 46 49 0 8 -99 -2 -189 -19 -84
-15 -265 -77 -318 -108 -62 -36 -147 -72 -170 -72 -11 0 -23 -4 -28 -8 -22
-18 -119 -44 -231 -61 -65 -11 -121 -17 -123 -15 -2 2 1 21 7 43 19 62 170
199 275 251 95 46 151 95 127 110 -12 8 -9 15 16 42 35 38 87 125 82 138 -2 5
-17 3 -34 -5z"/>
<path d="M4286 2787 c-29 -62 -99 -204 -154 -317 -55 -113 -121 -250 -147
-305 -26 -55 -57 -122 -70 -150 -38 -80 -84 -205 -109 -297 -20 -72 -20 -113
1 -179 24 -74 92 -142 164 -163 61 -19 81 -19 130 -6 69 19 96 57 189 265 5
11 27 67 49 125 37 99 80 193 81 179 0 -7 -31 -116 -55 -189 -36 -115 -71
-281 -74 -359 -4 -94 50 -191 130 -231 47 -25 75 -25 88 -3 8 16 14 13 52 -25
57 -55 91 -55 155 3 26 22 59 131 69 222 15 147 28 224 37 230 8 4 9 -44 4
-153 -10 -225 14 -337 94 -428 44 -50 173 -146 196 -146 17 0 82 37 110 64 6
6 34 30 62 54 35 30 62 64 84 110 l33 67 5 225 c6 259 10 257 45 -15 25 -194
60 -261 141 -272 35 -4 43 -1 79 36 44 46 55 50 55 20 0 -16 4 -19 23 -14 118
35 197 135 197 251 0 42 -20 154 -39 224 -6 19 -26 95 -46 168 -20 73 -38 141
-41 150 -3 9 2 5 10 -9 16 -28 110 -258 121 -299 30 -105 109 -221 165 -244
54 -21 88 -20 157 5 101 37 173 139 173 244 0 41 -24 143 -45 190 -7 17 -38
89 -68 160 -53 124 -111 247 -316 668 -50 103 -91 192 -91 197 0 6 -19 10 -42
10 -69 0 -298 10 -353 15 -102 10 -523 18 -558 11 -29 -5 -41 -15 -56 -44 -25
-48 -60 -80 -101 -92 -48 -14 -111 18 -151 76 -33 48 -40 52 -60 28 -18 -22
-64 -44 -92 -44 -16 0 -39 16 -68 49 -35 38 -51 48 -77 49 -32 1 -34 -2 -86
-111z"/>
</g>
</svg>
